<svg xmlns="http://www.w3.org/2000/svg" width="26.047" height="26.063" viewBox="0 0 26.047 26.063">
  <g id="check-button-filled" transform="translate(-48.144 463.97)">
    <path id="Path_345" data-name="Path 345" d="M59.823-463.9a13.7,13.7,0,0,0-5.528,1.893,13.061,13.061,0,0,0-4.744,16.966,13.011,13.011,0,0,0,11.118,7.126,13.039,13.039,0,0,0,13.13-9.815,13.063,13.063,0,0,0-2.6-11.507,12.951,12.951,0,0,0-4.293-3.384A13.142,13.142,0,0,0,59.823-463.9Zm8.875,7.095a1,1,0,0,1,.414,1.247C69-455.3,58.865-445.108,58.62-445.007a1.028,1.028,0,0,1-.783.006c-.207-.088-4.343-4.124-4.512-4.4a1.068,1.068,0,0,1-.113-.508.938.938,0,0,1,.99-.965,1.037,1.037,0,0,1,.827.407c.119.125.89.877,1.711,1.673l1.485,1.448,4.688-4.719c2.576-2.595,4.763-4.757,4.87-4.8A1,1,0,0,1,68.7-456.809Z" transform="translate(0)" fill="#8967b3"/>
  </g>
</svg>
