<svg xmlns="http://www.w3.org/2000/svg" width="26.047" height="26.052" viewBox="0 0 26.047 26.052">
  <g id="check-button-outline" transform="translate(-48.102 463.997)">
    <path id="Path_346" data-name="Path 346" d="M59.785-463.928a13.054,13.054,0,0,0-11.026,8.889,12.926,12.926,0,0,0,.683,9.8,13,13,0,0,0,14.352,7.016,13.108,13.108,0,0,0,9.015-7.016,13,13,0,0,0-2.474-14.941A13.135,13.135,0,0,0,59.785-463.928Zm2.5,2a11.108,11.108,0,0,1,8.075,4.962,11,11,0,0,1-1.3,13.632,10.379,10.379,0,0,1-3.026,2.224A11.016,11.016,0,0,1,51.93-444.9a11.064,11.064,0,0,1-.677-10.957,10.34,10.34,0,0,1,2.211-3.013,11.015,11.015,0,0,1,6.659-3.082A14.664,14.664,0,0,1,62.285-461.93Z" transform="translate(0 0)"/>
    <path id="Path_347" data-name="Path 347" d="M143.551-351.885c-.107.044-2.293,2.205-4.868,4.8L134-342.369l-1.779-1.729a19.525,19.525,0,0,0-1.948-1.773,1.348,1.348,0,0,0-.9.15,1.072,1.072,0,0,0-.276,1.3c.163.269,4.3,4.31,4.51,4.4a1.028,1.028,0,0,0,.783-.006c.244-.1,10.374-10.286,10.487-10.543a.991.991,0,0,0-.063-.9A1,1,0,0,0,143.551-351.885Z" transform="translate(-75.816 -105.008)"/>
  </g>
</svg>
