<svg xmlns="http://www.w3.org/2000/svg" width="30.014" height="26.128" viewBox="0 0 30.014 26.128">
  <g id="heart_-_outline" data-name="heart - outline" transform="translate(-27.085 457.692)">
    <path id="Path_1686" data-name="Path 1686" d="M34.814-457.673a8.348,8.348,0,0,0-4.988,2.451,9.331,9.331,0,0,0-2.556,4.686,14.168,14.168,0,0,0-.131,3.487,13.245,13.245,0,0,0,3,6.836A30.037,30.037,0,0,0,33.4-436.98c.891.747,4.169,3.31,5.014,3.92a7.979,7.979,0,0,0,2.694,1.4,4.782,4.782,0,0,0,1.953,0,8.611,8.611,0,0,0,2.3-1.108c.721-.5,4.083-3.107,5.309-4.123a31.254,31.254,0,0,0,3.369-3.317,12.747,12.747,0,0,0,3.054-8.239,9.444,9.444,0,0,0-1.6-5.388,8.674,8.674,0,0,0-5.414-3.716,9.34,9.34,0,0,0-3.277.033,10.26,10.26,0,0,0-4.2,2.071l-.518.426-.5-.413a10.1,10.1,0,0,0-4.214-2.084A12.164,12.164,0,0,0,34.814-457.673Zm2.36,2.261a8.713,8.713,0,0,1,3.67,2.1c.806.721.885.773,1.245.773s.439-.052,1.245-.773a8.79,8.79,0,0,1,3.729-2.13,7.313,7.313,0,0,1,2.923.007,6.938,6.938,0,0,1,3.4,2.242,8.512,8.512,0,0,1,1.4,2.786,5.819,5.819,0,0,1,.177,2,7.869,7.869,0,0,1-.144,2.012c-.6,2.746-2.222,5.132-5.257,7.695-1.2,1.016-4.706,3.736-5.5,4.26-1.77,1.173-2.589,1.062-4.857-.649-1.54-1.167-4.018-3.126-4.745-3.749-2.976-2.55-4.568-4.936-5.132-7.7a8.835,8.835,0,0,1-.111-1.9,5.729,5.729,0,0,1,.177-1.966,8.512,8.512,0,0,1,1.4-2.786,6.63,6.63,0,0,1,3.808-2.327A6.96,6.96,0,0,1,37.173-455.411Z" transform="translate(0 0)"/>
  </g>
</svg>
