<svg xmlns="http://www.w3.org/2000/svg" width="30.016" height="29.812" viewBox="0 0 30.016 29.812">
  <g id="home_-_solid" data-name="home - solid" transform="translate(-42.997 466.116)">
    <path id="Path_1690" data-name="Path 1690" d="M56.694-465.966a6,6,0,0,0-.986.373c-.444.225-9.913,6.651-10.787,7.321a5.415,5.415,0,0,0-1.783,2.832c-.134.535-.141.8-.141,7.581,0,7.955-.028,7.518.578,8.737a4.013,4.013,0,0,0,.972,1.268,4.014,4.014,0,0,0,1.268.972,7.365,7.365,0,0,0,1.156.437c.543.141.817.141,11.034.141s10.491,0,11.034-.141a7.365,7.365,0,0,0,1.156-.437,4.014,4.014,0,0,0,1.268-.972,4.013,4.013,0,0,0,.972-1.268c.606-1.219.578-.782.578-8.737,0-6.785-.007-7.046-.141-7.581a5.451,5.451,0,0,0-1.656-2.727c-.514-.444-10.421-7.18-10.907-7.426A5.546,5.546,0,0,0,56.694-465.966Zm5.362,23a.818.818,0,0,1,.458.676.819.819,0,0,1-.458.676,74,74,0,0,1-8.1,0,.819.819,0,0,1-.458-.676.822.822,0,0,1,.444-.669A74.254,74.254,0,0,1,62.056-442.969Z" fill="#8967b3"/>
  </g>
</svg>
