<svg xmlns="http://www.w3.org/2000/svg" width="21.007" height="15.393" viewBox="0 0 21.007 15.393">
  <g id="seen" transform="translate(-16 431.656)">
    <path id="Path_248" data-name="Path 248" d="M25.788-431.645a11.021,11.021,0,0,0-5.715,2.422,11.511,11.511,0,0,0-3.661,5.014A9.34,9.34,0,0,0,16-422.57a.734.734,0,0,0,.6.7.777.777,0,0,0,.644-.267,4.639,4.639,0,0,0,.245-.762,7.572,7.572,0,0,1,.683-1.817,11.124,11.124,0,0,1,3.692-4.073,9.323,9.323,0,0,1,3.394-1.371,9.526,9.526,0,0,1,2.5,0,9.62,9.62,0,0,1,5,2.671,9.687,9.687,0,0,1,2.812,4.778c.109.5.136.552.333.7a.687.687,0,0,0,.937-.088c.188-.219.21-.394.1-.937a10.6,10.6,0,0,0-3-5.286,10.45,10.45,0,0,0-1.888-1.542,10.811,10.811,0,0,0-4.182-1.695A14.6,14.6,0,0,0,25.788-431.645Z" transform="translate(0 0)" fill="#8967b3"/>
    <path id="Path_249" data-name="Path 249" d="M125.291-351.866a6.056,6.056,0,0,0-4.327,2.833,5.954,5.954,0,0,0,1.887,8.089,5.96,5.96,0,0,0,8.207-1.8,5.968,5.968,0,0,0,.477-5.544c-.184-.425-.3-.574-.5-.683-.136-.07-.28-.066-.889.031a3.106,3.106,0,0,1-1.887-.4,3.866,3.866,0,0,1-.6-.495,2.938,2.938,0,0,1-.8-1.366c-.11-.394-.188-.512-.42-.626A2.337,2.337,0,0,0,125.291-351.866Z" transform="translate(-99.547 -76.253)" fill="#8967b3"/>
  </g>
</svg>
