<svg xmlns="http://www.w3.org/2000/svg" width="30.014" height="29.999" viewBox="0 0 30.014 29.999">
  <g id="activity_-_outline" data-name="activity - outline" transform="translate(-48 479.977)">
    <path id="Path_1683" data-name="Path 1683" d="M376.671-479.909a3.688,3.688,0,0,0-2.59,1.979,3.147,3.147,0,0,0-.382,1.632,3.531,3.531,0,0,0,1.076,2.625,3.561,3.561,0,0,0,2.66,1.076,3.636,3.636,0,0,0,3.625-3.458,3.535,3.535,0,0,0-1.09-2.819A3.645,3.645,0,0,0,376.671-479.909Zm1.174,2.236a1.581,1.581,0,0,1,1.014,1.458,1.723,1.723,0,0,1-.632,1.146,1.392,1.392,0,0,1-1.868-.188,1.41,1.41,0,0,1,.354-2.319A1.375,1.375,0,0,1,377.845-477.673Z" transform="translate(-303.055)"/>
    <path id="Path_1684" data-name="Path 1684" d="M57.293-463.569a14.663,14.663,0,0,0-3.872.6,7.7,7.7,0,0,0-4.747,4.743C48.139-456.6,48-454.791,48-449.2s.139,7.4.674,9.028a7.745,7.745,0,0,0,4.65,4.708c1.654.563,3.517.708,9.133.708,6.443,0,8.16-.187,9.974-1.07a7.693,7.693,0,0,0,3.816-4.375,11.326,11.326,0,0,0,.32-1.292c.278-1.542.306-2.34.313-7.549,0-4.952,0-5.014-.146-5.2a.982.982,0,0,0-.931-.479.982.982,0,0,0-.931.479c-.146.188-.146.285-.188,5.271-.028,3.09-.076,5.368-.125,5.813-.25,2.278-.688,3.333-1.828,4.417a4.782,4.782,0,0,1-1.946,1.195c-1.467.486-3.448.6-9.439.549-2.4-.021-4.581-.069-4.97-.111-2.2-.243-3.295-.694-4.351-1.792-1.189-1.222-1.564-2.4-1.731-5.333-.09-1.618-.09-8.313,0-9.931.167-2.944.542-4.1,1.731-5.333,1.063-1.1,2.155-1.549,4.351-1.792.48-.049,2.648-.1,5.853-.125,4.991-.042,5.088-.042,5.276-.187a.98.98,0,0,0,.48-.931.98.98,0,0,0-.48-.931c-.188-.146-.257-.146-4.685-.153C60.344-463.625,57.856-463.6,57.293-463.569Z" transform="translate(0 -15.221)"/>
    <path id="Path_1685" data-name="Path 1685" d="M148.784-332.806a1.317,1.317,0,0,0-.361.257c-.083.09-.688,1.25-1.34,2.577-1.306,2.653-1.41,2.8-2.111,3.007a1.3,1.3,0,0,1-1.007-.007c-.514-.153-.854-.486-1.236-1.236a3.871,3.871,0,0,0-3.528-2.222,3.688,3.688,0,0,0-2.8,1.09l-.521.5-1.264,2.57c-.694,1.41-1.285,2.66-1.313,2.764a1.14,1.14,0,0,0,1.306,1.271c.5-.1.618-.278,1.9-2.868,1.042-2.111,1.243-2.479,1.493-2.695a1.716,1.716,0,0,1,2.389.118,4.6,4.6,0,0,1,.521.819,3.983,3.983,0,0,0,4.618,2.056,3.635,3.635,0,0,0,1.715-1.021l.542-.535,1.257-2.563c1.069-2.174,1.264-2.6,1.264-2.875A1.1,1.1,0,0,0,148.784-332.806Z" transform="translate(-79.348 -136.867)"/>
  </g>
</svg>
