<svg xmlns="http://www.w3.org/2000/svg" width="5.705" height="10.004" viewBox="0 0 5.705 10.004">
  <g id="arrow-down-sign-to-navigate" transform="translate(401.724 10.443) rotate(-90)">
    <path id="Path_348" data-name="Path 348" d="M.972-401.708a.729.729,0,0,0-.478.4.524.524,0,0,0-.053.284c0,.313-.188.1,2.333,2.627,1.521,1.523,2.27,2.261,2.331,2.294a.688.688,0,0,0,.458.072.991.991,0,0,0,.211-.072c.061-.033.81-.771,2.331-2.294,2.521-2.525,2.333-2.314,2.333-2.627a.546.546,0,0,0-.055-.288.711.711,0,0,0-.961-.335c-.051.025-.759.72-2.03,1.989l-1.953,1.951-1.953-1.951c-1.276-1.274-1.979-1.963-2.03-1.989A.763.763,0,0,0,.972-401.708Z" transform="translate(0)"/>
  </g>
</svg>
