<svg xmlns="http://www.w3.org/2000/svg" width="11.41" height="20.008" viewBox="0 0 11.41 20.008">
  <g id="arrow-down-sign-to-navigate" transform="translate(-390.314 -0.438) rotate(90)">
    <path id="Path_348" data-name="Path 348" d="M1.506-401.692a1.459,1.459,0,0,0-.955.8,1.048,1.048,0,0,0-.106.568c0,.626-.376.2,4.666,5.253,3.042,3.046,4.541,4.521,4.662,4.588a1.376,1.376,0,0,0,.916.145,1.981,1.981,0,0,0,.423-.145c.121-.067,1.621-1.542,4.662-4.588,5.042-5.05,4.666-4.627,4.666-5.253a1.092,1.092,0,0,0-.11-.575,1.421,1.421,0,0,0-1.922-.669c-.1.051-1.519,1.441-4.059,3.977l-3.907,3.9-3.907-3.9c-2.552-2.548-3.958-3.926-4.059-3.977A1.527,1.527,0,0,0,1.506-401.692Z" transform="translate(0)"/>
  </g>
</svg>
