<svg xmlns="http://www.w3.org/2000/svg" width="15.046" height="15.037" viewBox="0 0 15.046 15.037">
  <g id="cancel_-_alt2" data-name="cancel - alt2" transform="translate(-0.6 511.565)">
    <path id="Path_344" data-name="Path 344" d="M7.424-511.548a7.535,7.535,0,0,0-4.635,2.178,7.535,7.535,0,0,0-2.154,4.414,11.8,11.8,0,0,0,0,1.825,7.535,7.535,0,0,0,2.154,4.414A7.534,7.534,0,0,0,7.2-496.563a11.793,11.793,0,0,0,1.825,0,7.52,7.52,0,0,0,6.386-5.627,7.535,7.535,0,0,0-.55-5.2,7.533,7.533,0,0,0-5.806-4.129A11.67,11.67,0,0,0,7.424-511.548Zm-1.689,4.282c.056.029.612.562,1.242,1.186l1.139,1.139,1.142-1.139c.627-.624,1.183-1.157,1.239-1.186a.885.885,0,0,1,.25-.065.448.448,0,0,1,.312.071.578.578,0,0,1,.335.55.681.681,0,0,1-.053.283c-.029.056-.565.615-1.189,1.242l-1.139,1.142,1.139,1.139c.624.63,1.157,1.186,1.186,1.242a.882.882,0,0,1,.065.25.641.641,0,0,1-.565.656c-.285.032-.306.018-1.569-1.239l-1.154-1.151-1.142,1.139c-.627.624-1.186,1.159-1.242,1.189a.71.71,0,0,1-.28.056.6.6,0,0,1-.618-.618.711.711,0,0,1,.056-.28c.029-.056.565-.615,1.189-1.245l1.139-1.139L6.08-505.186c-.624-.627-1.159-1.186-1.189-1.242a.681.681,0,0,1-.053-.283.578.578,0,0,1,.335-.55.448.448,0,0,1,.312-.071A.885.885,0,0,1,5.735-507.266Z" fill="#d0d0d0"/>
  </g>
</svg>
