<svg id="companies" xmlns="http://www.w3.org/2000/svg" width="17.623" height="17.604" viewBox="0 0 17.623 17.604">
  <path id="Path_1712" data-name="Path 1712" d="M1.424-511.479a1.73,1.73,0,0,0-1.2.836c-.241.406-.227-.124-.227,7.933,0,4.688.014,7.324.034,7.444A1.806,1.806,0,0,0,.887-494.1c.42.224-.089.21,7.919.21s7.5.014,7.923-.213a1.786,1.786,0,0,0,.854-1.16c.048-.251.048-7.672,0-7.923a1.8,1.8,0,0,0-.864-1.174c-.4-.2-.361-.2-3.2-.2H10.906v-1.886c0-1.167-.014-1.941-.038-2.037a1.782,1.782,0,0,0-.444-.8c-.365-.372-.241-.337-4.577-1.318-2.13-.482-3.958-.885-4.061-.895A1.8,1.8,0,0,0,1.424-511.479Zm4.182,1.673c2.034.465,3.779.864,3.872.891a.817.817,0,0,1,.513.437l.089.179v13.581H7.6v-1.807a7.5,7.5,0,0,0-.072-2.02,1.423,1.423,0,0,0-.75-.85l-.193-.09H4.315l-.193.1a1.433,1.433,0,0,0-.606.544c-.213.354-.217.41-.217,2.364v1.766l-.919-.01-.922-.01-.182-.1a.843.843,0,0,1-.42-.537c-.024-.107-.034-2.289-.028-7.413l.01-7.262.076-.138a.882.882,0,0,1,.871-.475C1.851-510.654,3.572-510.268,5.606-509.807Zm10.618,6.13a.841.841,0,0,1,.313.207c.272.279.258.007.248,4.3l-.01,3.817-.072.138a1.02,1.02,0,0,1-.41.41c-.138.072-.151.072-2.743.083l-2.609.007v-9.017H13.5A16.647,16.647,0,0,1,16.224-503.677ZM6.5-498.6a1.013,1.013,0,0,1,.186.176c.072.1.072.134.083,1.9l.01,1.8H4.126v-1.738c0-1.962,0-1.938.251-2.12l.138-.1h.936C6.367-498.676,6.391-498.673,6.5-498.6Z" transform="translate(0.004 511.497)"/>
  <path id="Path_1713" data-name="Path 1713" d="M75.117-394.883a.3.3,0,0,0-.117.272.406.406,0,0,0,.3.4,12.7,12.7,0,0,0,1.7.01.453.453,0,0,0,.348-.32.451.451,0,0,0-.169-.406c-.093-.072-.124-.076-1.022-.076h-.929Z" transform="translate(-72.419 399.009)"/>
  <path id="Path_1714" data-name="Path 1714" d="M175.33-394.945a.415.415,0,0,0,.127.737,10.738,10.738,0,0,0,1.793-.01.415.415,0,0,0,.227-.571c-.107-.2-.138-.21-1.146-.21C175.551-395,175.4-394.993,175.33-394.945Z" transform="translate(-169.128 399.009)"/>
  <path id="Path_1715" data-name="Path 1715" d="M75.117-322.883a.3.3,0,0,0-.117.258.409.409,0,0,0,.169.372c.079.055.2.062.915.072.454.007.874,0,.936-.01a.483.483,0,0,0,.334-.327.451.451,0,0,0-.169-.406c-.093-.072-.124-.076-1.022-.076h-.929Z" transform="translate(-72.419 329.487)"/>
  <path id="Path_1716" data-name="Path 1716" d="M175.36-322.935a.42.42,0,0,0-.093.6c.131.145.241.162,1.094.162.905,0,1-.017,1.119-.213a.366.366,0,0,0,.021-.389c-.089-.21-.151-.224-1.146-.224C175.545-323,175.456-322.993,175.36-322.935Z" transform="translate(-169.151 329.487)"/>
  <path id="Path_1717" data-name="Path 1717" d="M75.256-250.966a.418.418,0,0,0,0,.737c.107.052.234.059.995.048.826-.01.881-.014.974-.083a.417.417,0,0,0,.007-.647L77.129-251l-.9,0A8.75,8.75,0,0,0,75.256-250.966Z" transform="translate(-72.455 259.966)"/>
  <path id="Path_1718" data-name="Path 1718" d="M175.313-250.945a.411.411,0,0,0-.155.53.581.581,0,0,0,.158.162c.114.076.138.079.974.079.95,0,1-.01,1.129-.217a.354.354,0,0,0,.014-.389c-.1-.21-.151-.22-1.139-.22A3.337,3.337,0,0,0,175.313-250.945Z" transform="translate(-169.09 259.966)"/>
  <path id="Path_1719" data-name="Path 1719" d="M368.377-235.691a.534.534,0,0,0-.2.141.279.279,0,0,0-.076.282.329.329,0,0,0,.124.268l.107.1h.922c.85,0,.926-.007,1.029-.069a.412.412,0,0,0,0-.668c-.093-.069-.141-.072-.946-.079A7.76,7.76,0,0,0,368.377-235.691Z" transform="translate(-355.426 245.21)"/>
  <path id="Path_1720" data-name="Path 1720" d="M368.181-162.9a.336.336,0,0,0-.127.275c-.014.165-.007.186.1.3.155.155.248.165,1.2.151.867-.01.919-.024,1.019-.258a.406.406,0,0,0-.1-.465l-.1-.1h-1.886Z" transform="translate(-355.381 174.994)"/>
  <path id="Path_1721" data-name="Path 1721" d="M368.238-91.115a.414.414,0,0,0,.083.723,9.6,9.6,0,0,0,1.81.014.41.41,0,0,0,.093-.74A8.328,8.328,0,0,0,368.238-91.115Z" transform="translate(-355.393 105.642)"/>
</svg>
