<svg xmlns="http://www.w3.org/2000/svg" width="18.197" height="20.053" viewBox="0 0 18.197 20.053">
  <g id="filter_-_alt2" data-name="filter - alt2" transform="translate(-450.679 -21.408) rotate(90)">
    <path id="Path_1672" data-name="Path 1672" d="M365.052-468.813A2.735,2.735,0,0,0,363-466.167a2.522,2.522,0,0,0,.3,1.261,2.732,2.732,0,0,0,2.731,1.458,2.684,2.684,0,0,0,1.65-.825,2.473,2.473,0,0,0,.607-.962,2.77,2.77,0,0,0-.765-2.984,3.433,3.433,0,0,0-1.167-.6A3.518,3.518,0,0,0,365.052-468.813Z" transform="translate(-326.991)" fill="#8967b3"/>
    <path id="Path_1673" data-name="Path 1673" d="M22.066-426.679a1.018,1.018,0,0,0-.351.214A.881.881,0,0,0,21.907-425l.227.111h5.617c4.322,0,5.659-.013,5.8-.051a.973.973,0,0,0,.577-.6.914.914,0,0,0-.415-1.043l-.2-.12-5.642-.008C24.233-426.722,22.168-426.709,22.066-426.679Z" transform="translate(0 -40.355)" fill="#8967b3"/>
    <path id="Path_1674" data-name="Path 1674" d="M27.316-319.688a2.835,2.835,0,0,0-1.829,1.419l-.184.355H23.764a7.184,7.184,0,0,0-1.7.064.912.912,0,0,0,0,1.667,7.2,7.2,0,0,0,1.7.064H25.3l.184.35a2.732,2.732,0,0,0,2.578,1.475,2.736,2.736,0,0,0,2.445-1.889,2.151,2.151,0,0,0,.111-.834,2.122,2.122,0,0,0-.115-.842,2.749,2.749,0,0,0-1.744-1.753A3.056,3.056,0,0,0,27.316-319.688Z" transform="translate(-0.112 -142.76)" fill="#8967b3"/>
    <path id="Path_1675" data-name="Path 1675" d="M278.2-276.932a.911.911,0,0,0,.077,1.684c.111.034,1.359.043,4.035.034l3.873-.013.188-.128a.908.908,0,0,0-.145-1.582,31.745,31.745,0,0,0-4.018-.064A32.215,32.215,0,0,0,278.2-276.932Z" transform="translate(-245.314 -183.674)" fill="#8967b3"/>
    <path id="Path_1676" data-name="Path 1676" d="M279.622-170.554a2.516,2.516,0,0,0-1.539.791,2.559,2.559,0,0,0-.816,1.753,2.678,2.678,0,0,0,.765,2.048,2.528,2.528,0,0,0,1.808.825,2.651,2.651,0,0,0,1.4-.274,3.093,3.093,0,0,0,1.184-1.2l.15-.308,1.479,0c1.727,0,1.812-.013,2.082-.325a.878.878,0,0,0-.252-1.4l-.227-.111h-3.095l-.051-.154a2.921,2.921,0,0,0-1.3-1.381A2.891,2.891,0,0,0,279.622-170.554Z" transform="translate(-244.916 -285.546)" fill="#8967b3"/>
    <path id="Path_1677" data-name="Path 1677" d="M21.95-127.889a.88.88,0,0,0-.47,1.017.985.985,0,0,0,.645.658c.145.038,1.205.051,3.894.051,4.193,0,4,.013,4.3-.325a.878.878,0,0,0-.252-1.4L29.836-128h-7.66Z" transform="translate(-0.042 -326.305)" fill="#8967b3"/>
  </g>
</svg>
