<svg xmlns="http://www.w3.org/2000/svg" width="30.347" height="26.128" viewBox="0 0 30.347 26.128">
  <g id="heart_-_solid" data-name="heart - solid" transform="translate(-42.923 441.84)">
    <path id="Path_1687" data-name="Path 1687" d="M49.909-441.745a8.507,8.507,0,0,0-6.546,5.89,11.239,11.239,0,0,0,.028,6.325,14.5,14.5,0,0,0,4.053,6.382,41.813,41.813,0,0,0,4.672,3.989c3.832,2.977,4.644,3.447,5.983,3.447a5.481,5.481,0,0,0,3.027-1.2c.719-.5,4.395-3.355,5.541-4.3a31.551,31.551,0,0,0,3.868-3.917,12.455,12.455,0,0,0,2.735-7.764,9.08,9.08,0,0,0-.47-3.041,8.192,8.192,0,0,0-8.5-5.862,8.11,8.11,0,0,0-2.963.9,10.739,10.739,0,0,0-2.7,1.895l-.541.513L57.558-439A9.15,9.15,0,0,0,49.909-441.745Z" fill="#8967b3"/>
  </g>
</svg>
