<svg xmlns="http://www.w3.org/2000/svg" width="17.773" height="15.515" viewBox="0 0 17.773 15.515">
  <g id="heart_-_solid" data-name="heart - solid" transform="translate(-42.161 442.605)">
    <path id="Path_1687" data-name="Path 1687" d="M46.666-441.789a4.558,4.558,0,0,0-3.507,3.156,6.022,6.022,0,0,0,.015,3.389,7.767,7.767,0,0,0,2.172,3.42,22.4,22.4,0,0,0,2.5,2.137c2.053,1.6,2.488,1.847,3.206,1.847a2.937,2.937,0,0,0,1.622-.641c.385-.267,2.355-1.8,2.969-2.305a16.907,16.907,0,0,0,2.072-2.1,6.674,6.674,0,0,0,1.466-4.16,4.866,4.866,0,0,0-.252-1.63,4.39,4.39,0,0,0-4.553-3.141,4.345,4.345,0,0,0-1.588.485,5.754,5.754,0,0,0-1.446,1.015l-.29.275-.29-.275A4.9,4.9,0,0,0,46.666-441.789Z" transform="translate(0 0)" fill="none" stroke="#8967b3" stroke-width="1.5"/>
  </g>
</svg>
