<svg xmlns="http://www.w3.org/2000/svg" width="21.007" height="21" viewBox="0 0 21.007 21">
  <g id="hide" transform="translate(-16.139 495.737)">
    <path id="Path_245" data-name="Path 245" d="M36.187-495.7c-.061.026-1.068,1.007-2.242,2.181L31.813-491.4l-.166-.1a16.8,16.8,0,0,0-1.826-.863,8.371,8.371,0,0,0-3.179-.565,7.622,7.622,0,0,0-2.483.342,11.957,11.957,0,0,0-7.264,6.231,8.155,8.155,0,0,0-.736,2.47.549.549,0,0,0,.114.442.7.7,0,0,0,.981.144c.193-.149.219-.2.328-.7a10.407,10.407,0,0,1,5.25-6.559,7.683,7.683,0,0,1,3.788-.968,7.114,7.114,0,0,1,2.846.521,6.518,6.518,0,0,1,1.292.626c0,.018-.617.648-1.371,1.4l-1.375,1.37-.118-.158a3.524,3.524,0,0,1-.442-.941.82.82,0,0,0-.871-.744,6.225,6.225,0,0,0-2.264.477,5.957,5.957,0,0,0-3.161,7.777l.131.307-2.553,2.561c-2.251,2.259-2.553,2.579-2.579,2.724a.68.68,0,0,0,.193.652.68.68,0,0,0,.652.193c.145-.026,1.2-1.064,10.115-9.975,7.326-7.326,9.961-9.988,10-10.1a.715.715,0,0,0-.276-.806A.874.874,0,0,0,36.187-495.7Z" fill="silver"/>
    <path id="Path_246" data-name="Path 246" d="M402.2-356.5l-.5.5.258.276a9.625,9.625,0,0,1,2.426,4.409c.109.486.131.534.324.683a.7.7,0,0,0,1.108-.473,8.253,8.253,0,0,0-.744-2.579,12,12,0,0,0-2.185-3.131l-.193-.188Z" transform="translate(-368.678 -132.662)" fill="silver"/>
    <path id="Path_247" data-name="Path 247" d="M182.6-285.824a55.021,55.021,0,0,0-4.024,3.91l-3.875,3.875.215.158a7.555,7.555,0,0,0,1.519.749,5.091,5.091,0,0,0,1.826.258,5.826,5.826,0,0,0,1.1-.074,6.03,6.03,0,0,0,3.9-2.636,5.968,5.968,0,0,0,.477-5.543c-.18-.416-.3-.574-.495-.679A1.106,1.106,0,0,0,182.6-285.824Z" transform="translate(-151.618 -200.685)" fill="silver"/>
  </g>
</svg>
