<svg xmlns="http://www.w3.org/2000/svg" width="183.978" height="184" viewBox="0 0 183.978 184">
  <g id="image" transform="translate(-42.5 469.55)">
    <path id="Path_342" data-name="Path 342" d="M84.879-468.341c-23.023,3.565-37.755,18.427-41.235,41.621-.515,3.608-.644,11.468-.644,49.138,0,48.622.043,49.224,2.405,57.514a45.292,45.292,0,0,0,27.017,29.938c10.652,4.081,10.266,4.081,61.852,4.081q44.263,0,48.107-.473c24.139-2.921,40.2-18.985,43.124-43.124q.451-3.866.472-48.322c0-37.326-.129-45.143-.644-48.751-1.718-11.382-5.713-20.059-12.542-27.275-7.56-7.989-16.795-12.542-29.036-14.346C177.442-469.286,90.935-469.286,84.879-468.341Zm97.975,13.7c15.205,2.663,24.311,10.953,28.177,25.686.9,3.35.945,4.6,1.074,26.717.086,12.757.129,24.7.043,26.545l-.129,3.307-2.1-1.5a20.525,20.525,0,0,0-20.746-1.5c-1.675.859-9.235,7.044-23.194,19.028-20.875,17.954-21.992,18.813-26.76,20.059a23.788,23.788,0,0,1-10.566-.215c-3.179-.9-5.154-2.062-8.934-5.154a23.1,23.1,0,0,0-9.836-5.2,20.89,20.89,0,0,0-11.468.644c-1.332.515-10.223,6.142-20.36,12.929-9.922,6.615-18.212,11.855-18.384,11.683a27.829,27.829,0,0,1-1.5-4.639l-1.2-4.252-.129-45.7c-.086-39.774-.043-46.174.558-49.567,2.792-16.193,12.37-25.943,28.349-28.821C91.021-455.541,177.4-455.584,182.854-454.639Z" fill="rgba(137,103,179,0.25)" stroke="rgba(137,103,179,0.75)" stroke-width="1"/>
    <path id="Path_343" data-name="Path 343" d="M157.733-391.235A22.13,22.13,0,0,0,142.4-377.018a21.015,21.015,0,0,0,1.117,16.236,20.929,20.929,0,0,0,19.543,12.242A20.929,20.929,0,0,0,182.6-360.782a21.242,21.242,0,0,0-4.381-24.913A21.857,21.857,0,0,0,157.733-391.235Z" transform="translate(-56.06 -44.032)" fill="rgba(137,103,179,0.75)" stroke="rgba(137,103,179,0.75)" stroke-width="1"/>
  </g>
</svg>
