<svg xmlns="http://www.w3.org/2000/svg" width="17.486" height="17.522" viewBox="0 0 17.486 17.522">
  <g id="info" transform="translate(0.074 0.072)">
    <path id="Path_1726" data-name="Path 1726" d="M28.365-491.546a8.8,8.8,0,0,0-4.424,1.733,11.082,11.082,0,0,0-1.689,1.689,8.885,8.885,0,0,0-1.67,4.007,11.126,11.126,0,0,0,0,2.452,8.7,8.7,0,0,0,2.625,5.08,8.682,8.682,0,0,0,7.576,2.256,8.728,8.728,0,0,0,6.817-6.312,7.275,7.275,0,0,0,.277-2.2,7.612,7.612,0,0,0-.063-1.253,8.666,8.666,0,0,0-2.477-4.925,8.415,8.415,0,0,0-2.3-1.655,8.655,8.655,0,0,0-2.588-.811A12.757,12.757,0,0,0,28.365-491.546Zm1.571.885A7.843,7.843,0,0,1,36.715-485a6.834,6.834,0,0,1,.273,2.12,6.08,6.08,0,0,1-.085,1.272,7.771,7.771,0,0,1-2.194,4.243,7.8,7.8,0,0,1-12.052-1.239,8.034,8.034,0,0,1-1.242-3.536,7.9,7.9,0,0,1,1.618-5.552,10.49,10.49,0,0,1,1.22-1.246A7.924,7.924,0,0,1,29.935-490.661Z" transform="translate(-20.512 491.567)" stroke="#000" stroke-width="0.1"/>
    <path id="Path_1727" data-name="Path 1727" d="M221.459-391.678a1.38,1.38,0,0,0-.855.745.986.986,0,0,0-.1.535,1.007,1.007,0,0,0,.1.538,1.42,1.42,0,0,0,.671.667.986.986,0,0,0,.535.1.986.986,0,0,0,.535-.1,1.42,1.42,0,0,0,.671-.667,1.007,1.007,0,0,0,.1-.538,1.007,1.007,0,0,0-.1-.538,1.343,1.343,0,0,0-1.147-.778A1.578,1.578,0,0,0,221.459-391.678Zm.66.981a.332.332,0,0,1,.114.3.326.326,0,0,1-.122.3.326.326,0,0,1-.3.122.326.326,0,0,1-.3-.122.323.323,0,0,1-.122-.3.427.427,0,0,1,.258-.413A.476.476,0,0,1,222.118-390.7Z" transform="translate(-213.127 395.396)" stroke="#000" stroke-width="0.1"/>
    <path id="Path_1728" data-name="Path 1728" d="M221.473-308.616a1.4,1.4,0,0,0-.877.759l-.1.206v4.94l.122.247a1.277,1.277,0,0,0,1.187.741,1.268,1.268,0,0,0,1.187-.741l.122-.247v-4.94l-.118-.243a1.321,1.321,0,0,0-1.106-.756A1.606,1.606,0,0,0,221.473-308.616Zm.56.922a.623.623,0,0,1,.17.173,18.614,18.614,0,0,1,.048,2.341c0,2.19,0,2.253-.074,2.371a.536.536,0,0,1-.214.181.419.419,0,0,1-.512-.17l-.085-.125v-2.253a18.65,18.65,0,0,1,.048-2.345.562.562,0,0,1,.394-.258A.489.489,0,0,1,222.034-307.695Z" transform="translate(-213.127 315.395)" stroke="#000" stroke-width="0.1"/>
  </g>
</svg>
