<svg xmlns="http://www.w3.org/2000/svg" width="17.611" height="17.969" viewBox="0 0 17.611 17.969">
  <g id="rocket" transform="translate(0.127 0.171)">
    <path id="Path_1736" data-name="Path 1736" d="M83.579-511.549a11.03,11.03,0,0,0-3.963.988,7.16,7.16,0,0,0-2.82,2.377l-.221.3-.346.135a14.3,14.3,0,0,0-1.71.843,7.981,7.981,0,0,0-3.3,3.569c-.1.269-.1.359,0,.473l.076.09,1.31.1c.719.055,1.313.107,1.32.114s-.114.373-.263.815a7.208,7.208,0,0,0-.276.929c0,.124.048.176.926,1.054.833.829.936.923,1.04.923a18.158,18.158,0,0,0,1.735-.556c.073-.038.066-.086.187,1.5.045.6.1,1.123.117,1.161a.34.34,0,0,0,.142.107c.09.038.131.035.321-.035a8.013,8.013,0,0,0,3.462-3.041,11.925,11.925,0,0,0,1.126-2.156c.059-.156.1-.2.339-.359.149-.1.442-.325.646-.5a8.139,8.139,0,0,0,2.588-5.014,11.888,11.888,0,0,0,.173-2.439c0-1.026-.007-1.133-.062-1.22a.35.35,0,0,0-.155-.131A20.492,20.492,0,0,0,83.579-511.549Zm1.686.553H85.6l.024.439a16.455,16.455,0,0,1-.1,2.239A8.332,8.332,0,0,1,85.261-507c-.073-.028-3.694-3.635-3.67-3.659a8.957,8.957,0,0,1,1.351-.259,16.5,16.5,0,0,1,1.835-.1C84.86-511,85.082-511,85.265-511Zm-2.249,2.6,2.077,2.059-.121.342a7.012,7.012,0,0,1-1.462,2.4A11.135,11.135,0,0,1,80-501.287c-1.04.508-1.693.8-2.391,1.085-.663.266-1.634.615-1.956.7l-.235.062-.726-.726-.726-.726.193-.567a27.351,27.351,0,0,1,1.572-3.714,14.424,14.424,0,0,1,2.09-3.383,7.093,7.093,0,0,1,1.97-1.458,7.706,7.706,0,0,1,1.126-.453C80.928-510.464,81.872-509.531,83.015-508.4Zm-7.045,1.52c-.394.681-1.261,2.457-1.624,3.321l-.187.446-.19-.024c-.211-.021-1.987-.156-2.084-.156-.035,0-.062-.014-.062-.028a3.136,3.136,0,0,1,.176-.335,8.077,8.077,0,0,1,2.512-2.564,14.1,14.1,0,0,1,1.538-.84C76.063-507.057,76.029-506.975,75.97-506.878Zm5.47,5.839c-.131.252-.332.608-.442.788a8.493,8.493,0,0,1-2.816,2.813l-.311.162v-.1c0-.107-.124-1.748-.155-2.059-.017-.169-.014-.2.041-.221.539-.19,2.82-1.258,3.517-1.645.19-.1.359-.193.373-.193A2.23,2.23,0,0,1,81.44-501.038Z" transform="translate(-68.82 511.569)" stroke="#000" stroke-width="0.25"/>
    <path id="Path_1737" data-name="Path 1737" d="M298.033-392.89a1.573,1.573,0,0,0-.663.428,1.527,1.527,0,0,0,.038,2.156,1.541,1.541,0,0,0,2.222-.017,1.554,1.554,0,0,0-.65-2.564A1.833,1.833,0,0,0,298.033-392.89Zm.954.618a.99.99,0,0,1-.47,1.859.97.97,0,0,1-1-1,.917.917,0,0,1,.342-.736.853.853,0,0,1,.695-.235A.781.781,0,0,1,298.987-392.272Z" transform="translate(-286.823 397.049)" stroke="#000" stroke-width="0.25"/>
    <path id="Path_1738" data-name="Path 1738" d="M6.637-177.027c-.349.37-2.526,2.833-2.553,2.885a.293.293,0,0,0,.266.38c.09,0,.145-.035.287-.183.252-.259,2.408-2.685,2.477-2.788s.073-.183-.031-.308C6.955-177.2,6.789-177.19,6.637-177.027Z" transform="translate(-4.065 188.709)" stroke="#000" stroke-width="0.25"/>
    <path id="Path_1739" data-name="Path 1739" d="M12.76-137.675c-.169.18-1.071,1.113-2,2.077s-1.707,1.776-1.724,1.814c-.093.2.152.442.373.359.031-.01.957-.954,2.059-2.09,1.883-1.945,2-2.077,2-2.191a.289.289,0,0,0-.283-.294C13.084-138,13.029-137.959,12.76-137.675Z" transform="translate(-8.84 150.908)" stroke="#000" stroke-width="0.25"/>
    <path id="Path_1740" data-name="Path 1740" d="M91.674-98.519c-.041.021-.657.7-1.375,1.5-1.185,1.334-1.3,1.472-1.3,1.583a.266.266,0,0,0,.4.245c.041-.024.66-.7,1.375-1.5,1.4-1.576,1.389-1.558,1.223-1.748A.26.26,0,0,0,91.674-98.519Z" transform="translate(-86.065 112.819)" stroke="#000" stroke-width="0.25"/>
  </g>
</svg>
