<svg xmlns="http://www.w3.org/2000/svg" width="74.999" height="75.044" viewBox="0 0 74.999 75.044">
  <g id="sad" transform="translate(-21.7 490.591)">
    <path id="Path_1694" data-name="Path 1694" d="M57.119-490.56a38.219,38.219,0,0,0-10,2,37.748,37.748,0,0,0-10.643,5.65,49.65,49.65,0,0,0-6.626,6.466A38.269,38.269,0,0,0,21.892-457.4c-.112.848-.192,2.817-.192,4.353s.08,3.505.192,4.353a38.292,38.292,0,0,0,7.954,19.046,52.292,52.292,0,0,0,5.954,5.954,37.957,37.957,0,0,0,18.518,7.874,47.412,47.412,0,0,0,9.283.08,37.776,37.776,0,0,0,18.326-7.442,49.646,49.646,0,0,0,6.626-6.466,37.23,37.23,0,0,0,8.147-23.4,37.23,37.23,0,0,0-8.147-23.4,49.834,49.834,0,0,0-6.706-6.53,37.6,37.6,0,0,0-18.118-7.346A53.478,53.478,0,0,0,57.119-490.56Zm5.042,3.905a33.675,33.675,0,0,1,27.256,18.694,33.413,33.413,0,0,1-.176,30.2A33.555,33.555,0,0,1,74.484-423a33.326,33.326,0,0,1-24.039,2.529,34.288,34.288,0,0,1-12.82-6.674A33.709,33.709,0,0,1,25.557-450.66a33.693,33.693,0,0,1,7.25-23.351A33.819,33.819,0,0,1,62.161-486.655Z" transform="translate(0 0)" fill="#8967b3"/>
    <path id="Path_1695" data-name="Path 1695" d="M125.138-284.349a16.533,16.533,0,0,1-2.241.864,8.948,8.948,0,0,1-4.017,0,5.91,5.91,0,0,0-1.072-.24,2.249,2.249,0,0,0-1.633.976c-.672,1.264.032,2.465,1.713,2.945a12.891,12.891,0,0,0,9.059-1.152c1.472-.72,1.953-1.264,1.953-2.241a1.4,1.4,0,0,0-.544-1.264C127.6-285.213,126.851-285.2,125.138-284.349Z" transform="translate(-79.143 -172.681)" fill="#8967b3"/>
    <path id="Path_1696" data-name="Path 1696" d="M315.544-284.456a1.4,1.4,0,0,0-.544,1.264c0,.976.48,1.521,1.953,2.241a12.891,12.891,0,0,0,9.059,1.152c1.873-.528,2.529-1.969,1.456-3.185-.624-.72-1.248-.848-2.465-.5a9.7,9.7,0,0,1-6.834-1.12,2.827,2.827,0,0,0-1.376-.4A1.407,1.407,0,0,0,315.544-284.456Z" transform="translate(-246.357 -172.686)" fill="#8967b3"/>
    <path id="Path_1697" data-name="Path 1697" d="M182.24-187.484A17.037,17.037,0,0,0,173.117-183c-2.193,2.081-2.673,3.281-1.729,4.321a1.939,1.939,0,0,0,3.121-.272,12.767,12.767,0,0,1,16.965-2.769,15.281,15.281,0,0,1,3.249,2.9,2.814,2.814,0,0,0,1.1.816,1.95,1.95,0,0,0,2.321-1.777c0-.8-.656-1.761-2.145-3.185a16.142,16.142,0,0,0-10.9-4.593A21.122,21.122,0,0,0,182.24-187.484Z" transform="translate(-125.345 -254.517)" fill="#8967b3"/>
  </g>
</svg>
