<svg xmlns="http://www.w3.org/2000/svg" width="30.008" height="29.96" viewBox="0 0 30.008 29.96">
  <g id="search-alt2" transform="translate(-26.539 500.579)">
    <path id="Path_1699" data-name="Path 1699" d="M38.218-499.923a12.777,12.777,0,0,0-3.983,1.284,11.952,11.952,0,0,0-3.212,2.314,12.955,12.955,0,0,0-3.876,7.72,16.351,16.351,0,0,0,.006,3.383,13.151,13.151,0,0,0,11.412,11.318,16.182,16.182,0,0,0,3.762-.057,13.494,13.494,0,0,0,5.88-2.561c.209-.164.417-.323.468-.348a28.953,28.953,0,0,1,2.94,2.795c3.067,3.06,3.067,3.06,3.6,2.959a1.139,1.139,0,0,0,.7-.55,1.009,1.009,0,0,0-.051-.948c-.082-.12-1.391-1.448-2.908-2.959s-2.763-2.763-2.763-2.788a3.03,3.03,0,0,1,.322-.449,13.222,13.222,0,0,0,2.687-6.285,16.082,16.082,0,0,0-.006-3.7,13.149,13.149,0,0,0-9.927-10.913A14.455,14.455,0,0,0,38.218-499.923Zm4.167,2.087a11.262,11.262,0,0,1,6.753,4.306A11.092,11.092,0,0,1,50.7-483.314a11.146,11.146,0,0,1-8.384,7.3,13.608,13.608,0,0,1-3.623.095,11.058,11.058,0,0,1-9.035-7.473,8.651,8.651,0,0,1-.537-3.5,9.041,9.041,0,0,1,.5-3.509,11.153,11.153,0,0,1,8.39-7.423,7.758,7.758,0,0,1,2.39-.164A8.528,8.528,0,0,1,42.385-497.837Z" transform="translate(0)" fill="#fff" stroke="#fff" stroke-width="1"/>
  </g>
</svg>
