<svg xmlns="http://www.w3.org/2000/svg" width="20.54" height="20.509" viewBox="0 0 20.54 20.509">
  <g id="search-alt2" transform="translate(-26.796 500.321)">
    <path id="Path_1699" data-name="Path 1699" d="M34.769-499.963a8.827,8.827,0,0,0-2.752.887,8.258,8.258,0,0,0-2.219,1.6,8.95,8.95,0,0,0-2.678,5.334,11.3,11.3,0,0,0,0,2.337,9.086,9.086,0,0,0,7.885,7.819,11.177,11.177,0,0,0,2.6-.039,9.323,9.323,0,0,0,4.062-1.769c.144-.114.288-.223.323-.24a20,20,0,0,1,2.031,1.931c2.119,2.114,2.119,2.114,2.49,2.044a.787.787,0,0,0,.485-.38.7.7,0,0,0-.035-.655c-.057-.083-.961-1-2.009-2.044s-1.909-1.909-1.909-1.926a2.093,2.093,0,0,1,.223-.31,9.135,9.135,0,0,0,1.857-4.342,11.111,11.111,0,0,0,0-2.555,9.085,9.085,0,0,0-6.858-7.54A9.986,9.986,0,0,0,34.769-499.963Zm2.879,1.442a7.781,7.781,0,0,1,4.665,2.975,7.663,7.663,0,0,1,1.079,7.059,7.7,7.7,0,0,1-5.792,5.041,9.4,9.4,0,0,1-2.5.066,7.64,7.64,0,0,1-6.242-5.163,5.977,5.977,0,0,1-.371-2.42,6.247,6.247,0,0,1,.345-2.424,7.705,7.705,0,0,1,5.8-5.128,5.36,5.36,0,0,1,1.651-.114A5.894,5.894,0,0,1,37.648-498.522Z" transform="translate(0)" fill="#8967b3" stroke="#8967b3" stroke-width="0.5"/>
  </g>
</svg>
