<svg xmlns="http://www.w3.org/2000/svg" width="100.001" height="100.259" viewBox="0 0 100.001 100.259">
  <g id="settings_-_alt2" data-name="settings - alt2" transform="translate(-1.008 511.594)">
    <path id="Path_339" data-name="Path 339" d="M264.78-511.4a24.01,24.01,0,0,0-17.612,12.454,25.034,25.034,0,0,0-2.393,6.962,26.818,26.818,0,0,0,.686,11.12l.392,1.255-3.687,3.687-3.667,3.667,4.334,4.334,4.334,4.334,1.314-.412a8.212,8.212,0,0,1,7.845,1.51l.569.451,1.706-1.687,1.706-1.706,1.255.392a25.439,25.439,0,0,0,11.022.549,23.9,23.9,0,0,0,18.788-18.043,29.258,29.258,0,0,0,.412-8.355c-.176-1.255-.294-1.549-.824-2.02a2.219,2.219,0,0,0-2.412-.314,49.957,49.957,0,0,0-3.687,3.432c-2.824,2.785-3.452,3.295-4.707,3.883a10.5,10.5,0,0,1-14.689-6.727,13.712,13.712,0,0,1,.1-5.433c.647-2.295,1.392-3.314,4.9-6.923,3.256-3.334,3.334-3.413,3.334-4.236a2.006,2.006,0,0,0-1.432-2C271.448-511.614,266.722-511.732,264.78-511.4Z" transform="translate(-190.915 0)" fill="#fff"/>
    <path id="Path_340" data-name="Path 340" d="M9.059-480.2c-1.059.373-6.864,6.119-7.413,7.335a2.941,2.941,0,0,0,.216,2.883c1,1.687,10.238,13.944,10.767,14.238a4.138,4.138,0,0,0,2.844.177A7.727,7.727,0,0,0,17-456.745l1.059-.981,16.121,16.1L50.3-425.5l-1.255,1.334a5.185,5.185,0,0,0-1.471,2.157c-.49,1.8-1.255.941,16.043,18.239,16.631,16.611,16.376,16.4,18.847,17.141a10.748,10.748,0,0,0,7.472-.647,12.968,12.968,0,0,0,4.354-4.275,10.8,10.8,0,0,0,.824-7.237c-.726-2.785-.314-2.334-17.023-19.1-10.473-10.492-15.768-15.67-16.317-15.925-1.491-.726-2.608-.412-4.354,1.255l-1.138,1.079L40.164-447.605,24.024-463.746l.628-.569c2.138-2,2.334-4.334.471-5.825-1.177-.941-13.16-9.708-13.532-9.9A3.419,3.419,0,0,0,9.059-480.2Z" transform="translate(-0.286 -25.099)"/>
    <path id="Path_341" data-name="Path 341" d="M18.52-227.271C4.654-213.366,2.732-211.385,2.2-210.307a10.126,10.126,0,0,0,3.53,13.4,9.5,9.5,0,0,0,5.276,1.451,9.318,9.318,0,0,0,4.8-1.118c1.02-.49,2.981-2.353,14.886-14.258l13.709-13.689-.49-.608a9.237,9.237,0,0,1-1.765-3.922,8.62,8.62,0,0,1,.549-4.57l.314-.608-4.393-4.393L34.249-243Z" transform="translate(0 -215.917)" fill="#fff"/>
  </g>
</svg>
