<svg xmlns="http://www.w3.org/2000/svg" width="20.062" height="20.114" viewBox="0 0 20.062 20.114">
  <g id="settings_-_alt2" data-name="settings - alt2" transform="translate(-1.008 511.594)">
    <path id="Path_339" data-name="Path 339" d="M243.772-511.554a4.817,4.817,0,0,0-3.533,2.5,5.023,5.023,0,0,0-.48,1.4,5.38,5.38,0,0,0,.138,2.231l.079.252-.74.74-.736.736.87.869.87.87.264-.082a1.647,1.647,0,0,1,1.574.3l.114.091.342-.338.342-.342.252.079a5.1,5.1,0,0,0,2.211.11,4.8,4.8,0,0,0,3.769-3.62,5.873,5.873,0,0,0,.083-1.676c-.035-.252-.059-.311-.165-.405a.445.445,0,0,0-.484-.063,9.988,9.988,0,0,0-.74.689,3.244,3.244,0,0,1-.944.779,2.107,2.107,0,0,1-2.947-1.349,2.751,2.751,0,0,1,.02-1.09c.13-.46.279-.665.984-1.389.653-.669.669-.685.669-.85a.4.4,0,0,0-.287-.4A5.123,5.123,0,0,0,243.772-511.554Z" transform="translate(-228.147 0)" fill="#fff"/>
    <path id="Path_340" data-name="Path 340" d="M2.908-480.338a7.621,7.621,0,0,0-1.487,1.471.59.59,0,0,0,.043.578c.2.338,2.054,2.8,2.16,2.856a.831.831,0,0,0,.571.036,1.557,1.557,0,0,0,.307-.236l.212-.2,3.234,3.23,3.234,3.234-.252.268a1.04,1.04,0,0,0-.3.433c-.1.362-.252.189,3.218,3.659,3.337,3.332,3.285,3.289,3.781,3.439a2.157,2.157,0,0,0,1.5-.13,2.6,2.6,0,0,0,.873-.858,2.166,2.166,0,0,0,.165-1.452c-.146-.559-.063-.468-3.415-3.832-2.1-2.1-3.163-3.144-3.274-3.195-.3-.146-.523-.083-.873.252l-.228.216L9.149-473.8,5.91-477.036l.126-.114c.429-.4.468-.87.094-1.169-.236-.189-2.64-1.948-2.715-1.987A.686.686,0,0,0,2.908-480.338Z" transform="translate(-0.342 -29.993)" fill="#fff"/>
    <path id="Path_341" data-name="Path 341" d="M4.521-239.844a33.637,33.637,0,0,0-3.274,3.4,2.031,2.031,0,0,0,.708,2.687,1.9,1.9,0,0,0,1.058.291,1.869,1.869,0,0,0,.964-.224,26.788,26.788,0,0,0,2.986-2.86l2.75-2.746-.1-.122a1.853,1.853,0,0,1-.354-.787,1.73,1.73,0,0,1,.11-.917l.063-.122-.881-.881L7.677-243Z" transform="translate(0 -258.026)" fill="#fff"/>
  </g>
</svg>
