<svg xmlns="http://www.w3.org/2000/svg" width="12.792" height="12.813" viewBox="0 0 12.792 12.813">
  <g id="tag" transform="translate(-32.581 479.955)">
    <path id="Path_1691" data-name="Path 1691" d="M44.917-479.9c-.046.029-.374.343-.728.7l-.64.643-.288-.28a1.224,1.224,0,0,0-.777-.451c-.211-.017-2.767.334-3.053.423a2.726,2.726,0,0,0-.854.463c-.126.1-.917.823-1.756,1.608s-2.079,1.936-2.75,2.562-1.257,1.191-1.3,1.257a1.078,1.078,0,0,0-.186.691.791.791,0,0,0,.091.486c.089.188.2.308,2.228,2.333a21.352,21.352,0,0,0,2.3,2.208,1.219,1.219,0,0,0,.72.1,1.15,1.15,0,0,0,.76-.431,1.7,1.7,0,0,1,.274-.257c.017,0,.371.129.791.286.857.32,1.005.351,1.3.274a1.555,1.555,0,0,0,.3-.106,1.477,1.477,0,0,0,.488-.468c.031-.063.414-1.185.851-2.493l.791-2.376.163-.18a2.775,2.775,0,0,0,.637-1.02,8.727,8.727,0,0,0,.274-1.614c.208-1.522.2-1.459.146-1.659a1.314,1.314,0,0,0-.44-.648l-.271-.28.7-.7.7-.7v-.131a.221.221,0,0,0-.094-.214A.281.281,0,0,0,44.917-479.9ZM42.5-478.671a1.134,1.134,0,0,1,.357.286l.257.257-.348.348-.346.346-.131-.037a1.084,1.084,0,0,0-.7.071.914.914,0,0,0-.388,1.194.932.932,0,0,0,.685.508.94.94,0,0,0,1-.6,1.073,1.073,0,0,0,0-.585l-.04-.114.334-.337a3.049,3.049,0,0,1,.366-.334,2.048,2.048,0,0,1,.291.268l.263.266v.16c0,.206-.326,2.559-.388,2.8a1.589,1.589,0,0,1-.354.66c-.077.091-1.288,1.4-2.687,2.9-1.671,1.8-2.585,2.756-2.662,2.8a.7.7,0,0,1-.528.026c-.043-.023-1.017-.985-2.168-2.136-1.968-1.971-2.093-2.1-2.119-2.222a.718.718,0,0,1,.054-.434c.034-.071,5.409-5.1,5.752-5.386a1.652,1.652,0,0,1,.7-.331c.166-.034,1.425-.214,2.585-.368.049-.006.091-.014.1-.014A.384.384,0,0,1,42.5-478.671Zm-.28,1.854a.223.223,0,0,1,.094.217.223.223,0,0,1-.094.217.286.286,0,0,1-.491-.2c0-.146.034-.214.137-.268A.288.288,0,0,1,42.224-476.817Zm-.32,6.877c-.3.908-.574,1.7-.6,1.751a.6.6,0,0,1-.511.323,2.892,2.892,0,0,1-.765-.234l-.634-.24.077-.091c.177-.211,2.959-3.182,2.97-3.17S42.2-470.848,41.9-469.94Z" transform="translate(0 0)" fill="#fff"/>
    <path id="Path_1692" data-name="Path 1692" d="M171.183-255.839a.288.288,0,0,0-.183.288c0,.111.017.131,1.008,1.12.96.962,1.011,1.008,1.111,1.008a.321.321,0,0,0,.306-.4c-.04-.1-1.9-1.971-2.016-2.019A.193.193,0,0,0,171.183-255.839Z" transform="translate(-134.465 -217.68)" fill="#fff"/>
    <path id="Path_1693" data-name="Path 1693" d="M139.208-223.906a.32.32,0,0,0-.208.3c0,.117.006.126,1.008,1.125s1.008,1.008,1.122,1.008a.31.31,0,0,0,.311-.363,9.991,9.991,0,0,0-.98-1.048c-.848-.851-1.08-1.057-1.168-1.042C139.283-223.92,139.243-223.912,139.208-223.906Z" transform="translate(-103.379 -248.719)" fill="#fff"/>
  </g>
</svg>
