<svg xmlns="http://www.w3.org/2000/svg" width="23.319" height="25.95" viewBox="0 0 23.319 25.95">
  <g id="user_-_outline" data-name="user - outline" transform="translate(-69.283 463.659)">
    <path id="Path_1710" data-name="Path 1710" d="M160.818-463.593a6.168,6.168,0,0,0-3.491,1.861,6.239,6.239,0,0,0-1.6,2.8,4.811,4.811,0,0,0-.137,1.592,5.078,5.078,0,0,0,.462,2.485,6.842,6.842,0,0,0,2.242,2.729,6.334,6.334,0,0,0,6.226.506,5.945,5.945,0,0,0,1.811-1.28,6.266,6.266,0,0,0,1.661-2.9,4.911,4.911,0,0,0,.137-1.542,4.943,4.943,0,0,0-.144-1.592,6.273,6.273,0,0,0-1.586-2.791,6.049,6.049,0,0,0-4.353-1.93A6.183,6.183,0,0,0,160.818-463.593Zm1.9,2a4.441,4.441,0,0,1,2.735,1.855,4.365,4.365,0,0,1,.312,4.209,4.358,4.358,0,0,1-2,2.048,3.923,3.923,0,0,1-1.911.431,3.883,3.883,0,0,1-1.917-.437,4.388,4.388,0,0,1-2.3-2.941,4.617,4.617,0,0,1,.144-2.329A4.328,4.328,0,0,1,162.716-461.589Z" transform="translate(-80.911 0)"/>
    <path id="Path_1711" data-name="Path 1711" d="M75.629-228.646a7.7,7.7,0,0,0-6.076,5.589,7.983,7.983,0,0,0-.256,2.248,4.142,4.142,0,0,0,.906,2.136,4.478,4.478,0,0,0,1.611,1.062l.418.144,8.555.019c8.374.012,8.562.012,9.043-.112a3.692,3.692,0,0,0,2.76-3.26,7.879,7.879,0,0,0-.256-2.236,7.747,7.747,0,0,0-4.5-5.127,10.967,10.967,0,0,0-1.08-.356l-.6-.169-5.027-.012C77.065-228.728,76.016-228.715,75.629-228.646ZM86.345-226.6a5.8,5.8,0,0,1,3.716,3.122,4.95,4.95,0,0,1,.443,2.941,2.088,2.088,0,0,1-.849.93l-.25.137H72.481l-.256-.137a1.9,1.9,0,0,1-.8-.831c-.362-.787.05-2.7.843-3.853a5.987,5.987,0,0,1,2.71-2.117c.881-.331.874-.331,6.12-.312C85.558-226.71,86-226.7,86.345-226.6Z" transform="translate(0 -220.265)"/>
  </g>
</svg>
